<svg width="72" height="26" viewBox="0 0 72 26" fill="none" xmlns="http://www.w3.org/2000/svg">
<path d="M3.47182 9.12C2.93182 9.12 2.45182 8.98 2.03182 8.7C1.61182 8.42 1.28182 8.02333 1.04182 7.51C0.801824 6.99 0.681824 6.38 0.681824 5.68C0.681824 4.93333 0.80849 4.27667 1.06182 3.71C1.31516 3.13667 1.67849 2.69 2.15182 2.37C2.63182 2.04333 3.20849 1.88 3.88182 1.88C4.31516 1.88 4.70182 1.93333 5.04182 2.04C5.38182 2.14667 5.70182 2.28333 6.00182 2.45L5.65182 3.24C5.37182 3.08667 5.08516 2.96 4.79182 2.86C4.50516 2.76 4.18516 2.71 3.83182 2.71C3.41182 2.71 3.03849 2.82333 2.71182 3.05C2.38516 3.27 2.12516 3.59667 1.93182 4.03C1.74516 4.46333 1.65182 4.99333 1.65182 5.62C1.65182 6.18 1.73849 6.66 1.91182 7.06C2.08516 7.45333 2.32516 7.75667 2.63182 7.97C2.93849 8.18333 3.29182 8.29 3.69182 8.29C4.06516 8.29 4.39516 8.21333 4.68182 8.06C4.97516 7.9 5.20516 7.73667 5.37182 7.57V6.04H3.92182V5.29H6.27182V9H5.43182V8.3C5.19849 8.50667 4.91516 8.69667 4.58182 8.87C4.24849 9.03667 3.87849 9.12 3.47182 9.12ZM7.72011 9V3.8H8.6201V9H7.72011ZM8.1701 2.91C7.99677 2.91 7.84677 2.84667 7.72011 2.72C7.60011 2.59333 7.54011 2.44667 7.54011 2.28C7.54011 2.08667 7.59677 1.93333 7.71011 1.82C7.82344 1.70667 7.97677 1.65 8.1701 1.65C8.34344 1.65 8.49011 1.71333 8.61011 1.84C8.73677 1.96 8.80011 2.10667 8.80011 2.28C8.80011 2.46667 8.74344 2.62 8.63011 2.74C8.51677 2.85333 8.36344 2.91 8.1701 2.91ZM11.8001 9.12C11.4934 9.12 11.2168 9.06333 10.9701 8.95C10.7234 8.83 10.5268 8.64 10.3801 8.38C10.2401 8.12 10.1701 7.78333 10.1701 7.37V1.6H11.0701V7.28C11.0701 7.64 11.1434 7.90667 11.2901 8.08C11.4434 8.25333 11.6534 8.34 11.9201 8.34C12.0468 8.34 12.1701 8.32667 12.2901 8.3C12.4168 8.26667 12.5234 8.23 12.6101 8.19L12.8301 8.92C12.7101 8.97333 12.5601 9.02 12.3801 9.06C12.2068 9.1 12.0134 9.12 11.8001 9.12ZM15.6107 9.12C14.864 9.12 14.2707 8.88333 13.8307 8.41C13.3973 7.93 13.1807 7.26 13.1807 6.4C13.1807 5.88 13.2773 5.41667 13.4707 5.01C13.6707 4.59667 13.9473 4.27333 14.3007 4.04C14.654 3.8 15.064 3.68 15.5307 3.68C16.0307 3.68 16.444 3.79 16.7707 4.01C17.104 4.22333 17.354 4.51333 17.5207 4.88C17.6873 5.24667 17.7707 5.65 17.7707 6.09C17.7707 6.32333 17.7607 6.55 17.7407 6.77H14.1007C14.1607 7.25667 14.3307 7.63667 14.6107 7.91C14.8907 8.18333 15.2607 8.32 15.7207 8.32C16.0207 8.32 16.2907 8.29 16.5307 8.23C16.7707 8.16333 17.0007 8.08 17.2207 7.98L17.4307 8.75C17.1907 8.85667 16.9207 8.94333 16.6207 9.01C16.3207 9.08333 15.984 9.12 15.6107 9.12ZM14.0907 6.04H16.9407C16.9407 5.53333 16.814 5.14333 16.5607 4.87C16.3073 4.59667 15.9573 4.46 15.5107 4.46C15.124 4.46 14.804 4.59667 14.5507 4.87C14.2973 5.13667 14.144 5.52667 14.0907 6.04ZM20.9601 9.12C20.5268 9.12 20.1334 9.01 19.7801 8.79C19.4268 8.57 19.1434 8.26 18.9301 7.86C18.7234 7.45333 18.6201 6.97667 18.6201 6.43C18.6201 5.91 18.7234 5.44333 18.9301 5.03C19.1434 4.61667 19.4334 4.29 19.8001 4.05C20.1734 3.80333 20.6001 3.68 21.0801 3.68C21.3801 3.68 21.6501 3.73333 21.8901 3.84C22.1368 3.94 22.3501 4.06667 22.5301 4.22V3.8H23.3501V7.74C23.3501 7.99333 23.4101 8.16 23.5301 8.24C23.6568 8.31333 23.7934 8.35 23.9401 8.35L23.7501 9.05C23.1101 9.05 22.7234 8.79 22.5901 8.27C22.4368 8.48333 22.2268 8.68 21.9601 8.86C21.7001 9.03333 21.3668 9.12 20.9601 9.12ZM21.1601 8.32C21.4134 8.32 21.6534 8.26 21.8801 8.14C22.1068 8.01333 22.2968 7.85667 22.4501 7.67V4.88C22.2701 4.75333 22.0701 4.65333 21.8501 4.58C21.6368 4.5 21.4101 4.46 21.1701 4.46C20.8501 4.46 20.5668 4.54333 20.3201 4.71C20.0801 4.87 19.8901 5.09667 19.7501 5.39C19.6101 5.67667 19.5401 6.01333 19.5401 6.4C19.5401 6.77333 19.6101 7.10667 19.7501 7.4C19.8901 7.68667 20.0834 7.91333 20.3301 8.08C20.5768 8.24 20.8534 8.32 21.1601 8.32ZM27.0143 9.12C26.5877 9.12 26.1977 9.01 25.8443 8.79C25.491 8.57 25.211 8.26 25.0043 7.86C24.7977 7.45333 24.6943 6.97667 24.6943 6.43C24.6943 5.90333 24.7977 5.43333 25.0043 5.02C25.2177 4.60667 25.4977 4.28 25.8443 4.04C26.1977 3.8 26.5843 3.68 27.0043 3.68C27.351 3.68 27.6477 3.75 27.8943 3.89C28.1477 4.03 28.3443 4.17333 28.4843 4.32V1.6H29.3843V7.74C29.3843 7.99333 29.4443 8.16 29.5643 8.24C29.691 8.31333 29.8277 8.35 29.9743 8.35L29.7843 9.05C29.151 9.05 28.7643 8.79667 28.6243 8.29C28.4777 8.49667 28.271 8.68667 28.0043 8.86C27.7443 9.03333 27.4143 9.12 27.0143 9.12ZM27.2143 8.32C27.461 8.32 27.6943 8.26333 27.9143 8.15C28.141 8.03 28.331 7.87667 28.4843 7.69V5.11C28.3577 4.95 28.181 4.80333 27.9543 4.67C27.7277 4.53 27.4777 4.46 27.2043 4.46C26.8843 4.46 26.6043 4.54667 26.3643 4.72C26.1243 4.89333 25.9377 5.12667 25.8043 5.42C25.6777 5.70667 25.6143 6.03333 25.6143 6.4C25.6143 6.76667 25.6843 7.09667 25.8243 7.39C25.9643 7.67667 26.1543 7.90333 26.3943 8.07C26.641 8.23667 26.9143 8.32 27.2143 8.32Z" fill="#8E8E8E"/>
<path d="M4.48982 23.144C3.76182 23.144 3.11782 22.972 2.55782 22.628C1.99782 22.276 1.56182 21.78 1.24982 21.14C0.937824 20.492 0.781824 19.724 0.781824 18.836C0.781824 17.98 0.937824 17.224 1.24982 16.568C1.56982 15.904 2.01782 15.388 2.59382 15.02C3.17782 14.644 3.85782 14.456 4.63382 14.456C5.03382 14.456 5.39782 14.496 5.72582 14.576C6.05382 14.648 6.36182 14.752 6.64982 14.888L6.30182 15.848C6.05382 15.728 5.79782 15.632 5.53382 15.56C5.27782 15.488 4.97382 15.452 4.62182 15.452C4.10982 15.452 3.64982 15.584 3.24182 15.848C2.84182 16.112 2.52582 16.492 2.29382 16.988C2.06182 17.484 1.94582 18.084 1.94582 18.788C1.94582 19.46 2.05782 20.048 2.28182 20.552C2.51382 21.056 2.82982 21.448 3.22982 21.728C3.63782 22.008 4.10182 22.148 4.62182 22.148C5.01382 22.148 5.35382 22.1 5.64182 22.004C5.92982 21.908 6.20982 21.784 6.48182 21.632L6.82982 22.58C6.53382 22.74 6.19382 22.876 5.80982 22.988C5.43382 23.092 4.99382 23.144 4.48982 23.144ZM10.4148 23.144C9.89482 23.144 9.44282 23.076 9.05882 22.94C8.67482 22.796 8.34682 22.624 8.07482 22.424L8.56682 21.524C8.79082 21.692 9.05082 21.84 9.34682 21.968C9.64282 22.096 10.0028 22.16 10.4268 22.16C10.9548 22.16 11.3708 22.02 11.6748 21.74C11.9868 21.46 12.1428 21.112 12.1428 20.696C12.1428 20.4 12.0628 20.132 11.9028 19.892C11.7428 19.644 11.4948 19.444 11.1588 19.292C10.8308 19.14 10.4028 19.064 9.87482 19.064H9.20282V18.188H9.82682C10.2988 18.188 10.6868 18.116 10.9908 17.972C11.3028 17.828 11.5348 17.64 11.6868 17.408C11.8388 17.176 11.9148 16.932 11.9148 16.676C11.9148 16.3 11.7708 15.996 11.4828 15.764C11.2028 15.532 10.8548 15.416 10.4388 15.416C10.0628 15.416 9.72682 15.48 9.43082 15.608C9.14282 15.728 8.90682 15.864 8.72282 16.016L8.27882 15.164C8.51882 15.004 8.82682 14.848 9.20282 14.696C9.57882 14.536 10.0188 14.456 10.5228 14.456C11.0508 14.456 11.4988 14.552 11.8668 14.744C12.2348 14.936 12.5148 15.192 12.7068 15.512C12.9068 15.824 13.0068 16.164 13.0068 16.532C13.0068 17.004 12.8868 17.4 12.6468 17.72C12.4148 18.04 12.0828 18.304 11.6508 18.512C12.1548 18.704 12.5468 18.988 12.8268 19.364C13.1148 19.732 13.2588 20.164 13.2588 20.66C13.2588 21.076 13.1548 21.476 12.9468 21.86C12.7468 22.236 12.4348 22.544 12.0108 22.784C11.5948 23.024 11.0628 23.144 10.4148 23.144ZM15.5821 23V14.624C15.9101 14.584 16.2701 14.556 16.6621 14.54C17.0621 14.516 17.4741 14.504 17.8981 14.504C18.5941 14.504 19.1861 14.616 19.6741 14.84C20.1621 15.056 20.5341 15.356 20.7901 15.74C21.0461 16.124 21.1741 16.564 21.1741 17.06C21.1741 17.66 21.0261 18.168 20.7301 18.584C20.4341 19 20.0221 19.32 19.4941 19.544C18.9661 19.76 18.3541 19.868 17.6581 19.868C17.3221 19.868 17.0101 19.856 16.7221 19.832V23H15.5821ZM17.8021 18.92C18.5141 18.92 19.0661 18.76 19.4581 18.44C19.8501 18.12 20.0461 17.692 20.0461 17.156C20.0461 16.636 19.8581 16.224 19.4821 15.92C19.1061 15.616 18.5701 15.464 17.8741 15.464C17.6581 15.464 17.4541 15.468 17.2621 15.476C17.0701 15.484 16.8901 15.496 16.7221 15.512V18.86C16.8501 18.876 17.0061 18.892 17.1901 18.908C17.3741 18.916 17.5781 18.92 17.8021 18.92ZM26.0348 23.144C25.4108 23.144 24.8548 23.032 24.3668 22.808C23.8788 22.576 23.4628 22.264 23.1188 21.872C22.7828 21.472 22.5228 21.008 22.3388 20.48C22.1628 19.952 22.0748 19.388 22.0748 18.788C22.0748 17.964 22.2308 17.228 22.5428 16.58C22.8628 15.924 23.3188 15.408 23.9108 15.032C24.5028 14.648 25.2108 14.456 26.0348 14.456C26.6508 14.456 27.2028 14.568 27.6908 14.792C28.1868 15.016 28.6068 15.328 28.9508 15.728C29.2948 16.128 29.5548 16.588 29.7308 17.108C29.9148 17.628 30.0068 18.188 30.0068 18.788C30.0068 19.388 29.9148 19.952 29.7308 20.48C29.5548 21.008 29.2948 21.472 28.9508 21.872C28.6068 22.264 28.1908 22.576 27.7028 22.808C27.2148 23.032 26.6588 23.144 26.0348 23.144ZM26.0348 22.16C26.6508 22.16 27.1668 22.012 27.5828 21.716C27.9988 21.42 28.3108 21.02 28.5188 20.516C28.7348 20.004 28.8428 19.428 28.8428 18.788C28.8428 18.356 28.7788 17.94 28.6508 17.54C28.5228 17.14 28.3388 16.784 28.0988 16.472C27.8588 16.152 27.5628 15.9 27.2108 15.716C26.8668 15.532 26.4748 15.44 26.0348 15.44C25.4508 15.44 24.9468 15.588 24.5228 15.884C24.1068 16.18 23.7868 16.58 23.5628 17.084C23.3468 17.588 23.2388 18.156 23.2388 18.788C23.2388 19.22 23.2988 19.64 23.4188 20.048C23.5468 20.448 23.7308 20.808 23.9708 21.128C24.2108 21.448 24.5028 21.7 24.8468 21.884C25.1988 22.068 25.5948 22.16 26.0348 22.16ZM41.0534 23.12L40.1174 20.72H36.2294L35.2934 23.096L34.3214 22.7L37.6094 14.6H38.8574L42.0974 22.7L41.0534 23.12ZM36.5894 19.76H39.7454L38.1734 15.728L36.5894 19.76ZM45.541 23.144C45.029 23.144 44.561 23.012 44.137 22.748C43.713 22.484 43.377 22.112 43.129 21.632C42.881 21.144 42.757 20.572 42.757 19.916C42.757 19.284 42.881 18.72 43.129 18.224C43.385 17.728 43.721 17.336 44.137 17.048C44.561 16.76 45.025 16.616 45.529 16.616C45.945 16.616 46.301 16.7 46.597 16.868C46.901 17.036 47.137 17.208 47.305 17.384V14.12H48.385V21.488C48.385 21.792 48.457 21.992 48.601 22.088C48.753 22.176 48.917 22.22 49.093 22.22L48.865 23.06C48.105 23.06 47.641 22.756 47.473 22.148C47.297 22.396 47.049 22.624 46.729 22.832C46.417 23.04 46.021 23.144 45.541 23.144ZM45.781 22.184C46.077 22.184 46.357 22.116 46.621 21.98C46.893 21.836 47.121 21.652 47.305 21.428V18.332C47.153 18.14 46.941 17.964 46.669 17.804C46.397 17.636 46.097 17.552 45.769 17.552C45.385 17.552 45.049 17.656 44.761 17.864C44.473 18.072 44.249 18.352 44.089 18.704C43.937 19.048 43.861 19.44 43.861 19.88C43.861 20.32 43.945 20.716 44.113 21.068C44.281 21.412 44.509 21.684 44.797 21.884C45.093 22.084 45.421 22.184 45.781 22.184ZM50.5364 23V16.76H51.5804V17.804C51.8044 17.468 52.0884 17.188 52.4324 16.964C52.7764 16.732 53.1684 16.616 53.6084 16.616C54.1044 16.616 54.5084 16.736 54.8204 16.976C55.1404 17.216 55.3644 17.536 55.4924 17.936C55.7404 17.568 56.0324 17.256 56.3684 17C56.7124 16.744 57.1364 16.616 57.6404 16.616C58.3204 16.616 58.8244 16.832 59.1524 17.264C59.4884 17.688 59.6564 18.244 59.6564 18.932V23H58.5764V19.016C58.5764 18.584 58.4764 18.236 58.2764 17.972C58.0764 17.7 57.8004 17.564 57.4484 17.564C57.0884 17.564 56.7524 17.7 56.4404 17.972C56.1364 18.236 55.8684 18.548 55.6364 18.908V23H54.5564V19.016C54.5564 18.584 54.4564 18.236 54.2564 17.972C54.0564 17.7 53.7804 17.564 53.4284 17.564C53.0764 17.564 52.7444 17.696 52.4324 17.96C52.1204 18.216 51.8484 18.52 51.6164 18.872V23H50.5364ZM61.5168 23V16.76H62.5968V23H61.5168ZM62.0568 15.692C61.8488 15.692 61.6688 15.616 61.5168 15.464C61.3728 15.312 61.3008 15.136 61.3008 14.936C61.3008 14.704 61.3688 14.52 61.5048 14.384C61.6408 14.248 61.8248 14.18 62.0568 14.18C62.2648 14.18 62.4408 14.256 62.5848 14.408C62.7368 14.552 62.8128 14.728 62.8128 14.936C62.8128 15.16 62.7448 15.344 62.6088 15.488C62.4728 15.624 62.2888 15.692 62.0568 15.692ZM64.5168 23V16.76H65.5608V17.804C65.7848 17.468 66.0688 17.188 66.4128 16.964C66.7648 16.732 67.1808 16.616 67.6608 16.616C68.3648 16.616 68.8888 16.828 69.2328 17.252C69.5848 17.676 69.7608 18.236 69.7608 18.932V23H68.6808V19.052C68.6808 18.604 68.5728 18.244 68.3568 17.972C68.1488 17.7 67.8568 17.564 67.4808 17.564C67.1128 17.564 66.7648 17.696 66.4368 17.96C66.1088 18.216 65.8288 18.52 65.5968 18.872V23H64.5168Z" fill="#C5203F"/>
</svg>
